<?xml version="1.0" encoding="UTF-8"?>
<svg version="1.1" xmlns="http://www.w3.org/2000/svg" viewBox="0 0 256 256">
<path d="M0 0 C3 0.125 3 0.125 4 1.125 C4.08713831 2.83272358 4.10700007 4.54398649 4.09765625 6.25390625 C4.09282227 7.80561523 4.09282227 7.80561523 4.08789062 9.38867188 C4.07532227 11.0215918 4.07532227 11.0215918 4.0625 12.6875 C4.05798828 13.77998047 4.05347656 14.87246094 4.04882812 15.99804688 C4.03699826 18.70708495 4.02051543 21.41601599 4 24.125 C5.05501709 24.11976318 6.11003418 24.11452637 7.19702148 24.10913086 C11.0975663 24.09108099 14.9981074 24.07956805 18.89868164 24.07006836 C20.58944316 24.0650281 22.28020029 24.05819595 23.97094727 24.04956055 C26.39600707 24.03748143 28.82100944 24.03176877 31.24609375 24.02734375 C32.38672523 24.01960182 32.38672523 24.01960182 33.55039978 24.01170349 C35.3673257 24.01150762 37.18413127 24.06302723 39 24.125 C40 25.125 40 25.125 40.11352539 27.53344727 C40.10567017 29.09663696 40.10567017 29.09663696 40.09765625 30.69140625 C40.09282227 32.3784668 40.09282227 32.3784668 40.08789062 34.09960938 C40.07532227 35.87561523 40.07532227 35.87561523 40.0625 37.6875 C40.05798828 38.87537109 40.05347656 40.06324219 40.04882812 41.28710938 C40.03699675 44.23312226 40.02051287 47.17903681 40 50.125 C40.92651367 50.26292969 41.85302734 50.40085938 42.80761719 50.54296875 C55.6332838 52.88132828 66.87291465 63.44162946 74.40234375 73.60546875 C80.74916217 83.61451002 84.3046955 93.91983027 84.29052734 105.72143555 C84.29724457 106.54052902 84.30396179 107.3596225 84.31088257 108.20353699 C84.32975286 110.88966071 84.33378151 113.57553301 84.3359375 116.26171875 C84.34237419 118.14728392 84.34910319 120.03284811 84.35610962 121.91841125 C84.36805585 125.86482048 84.3717933 129.81114235 84.37060547 133.75756836 C84.3704027 138.78286857 84.39767327 143.80760061 84.43214989 148.83276653 C84.45453076 152.72702033 84.45843956 156.62113995 84.45738602 160.51545143 C84.45972638 162.36638148 84.46846034 164.21731612 84.48405075 166.06818199 C84.629088 185.06858925 80.84773585 200.59889829 67.3515625 214.83984375 C59.10545634 222.85308645 47.9505053 231.125 36 231.125 C36.00523682 231.84679443 36.01047363 232.56858887 36.01586914 233.31225586 C36.03657358 236.56232849 36.04963918 239.81238728 36.0625 243.0625 C36.07087891 244.19880859 36.07925781 245.33511719 36.08789062 246.50585938 C36.09111328 247.58544922 36.09433594 248.66503906 36.09765625 249.77734375 C36.10289307 250.77757568 36.10812988 251.77780762 36.11352539 252.80834961 C36 255.125 36 255.125 35 256.125 C32.8273732 256.22456278 30.65146894 256.25299719 28.4765625 256.25439453 C27.79527283 256.25614685 27.11398315 256.25789917 26.41204834 256.25970459 C24.14967333 256.26412242 21.88737587 256.26118538 19.625 256.2578125 C18.0594074 256.25848556 16.4938149 256.2594556 14.92822266 256.26071167 C11.64289355 256.26218855 8.35759158 256.26003441 5.07226562 256.25537109 C0.85179484 256.2496738 -3.36861236 256.25295286 -7.58908081 256.25894356 C-10.82316572 256.26254944 -14.05723545 256.26141046 -17.2913208 256.25881577 C-18.84792081 256.25814657 -20.40452218 256.25897466 -21.96112061 256.26129532 C-24.13297196 256.2638223 -26.30471896 256.25998065 -28.4765625 256.25439453 C-29.71486816 256.25359894 -30.95317383 256.25280334 -32.22900391 256.25198364 C-35 256.125 -35 256.125 -36 255.125 C-36.08726223 253.34428754 -36.10699041 251.5601686 -36.09765625 249.77734375 C-36.09443359 248.69775391 -36.09121094 247.61816406 -36.08789062 246.50585938 C-36.07532227 244.80139648 -36.07532227 244.80139648 -36.0625 243.0625 C-36.05798828 241.92232422 -36.05347656 240.78214844 -36.04882812 239.60742188 C-36.03699747 236.77989649 -36.0205141 233.9524736 -36 231.125 C-37.05703125 230.99222656 -38.1140625 230.85945312 -39.203125 230.72265625 C-53.27861254 228.50707025 -65.54567105 218.80131105 -73.90625 207.5625 C-80.77807538 197.31299773 -84.1338065 187.17062427 -84.17700195 174.86914062 C-84.18357315 174.05048523 -84.19014435 173.23182983 -84.19691467 172.3883667 C-84.21658002 169.68599338 -84.22829835 166.98367561 -84.23828125 164.28125 C-84.24235678 163.35326096 -84.2464323 162.42527191 -84.25063133 161.46916199 C-84.27146841 156.55236029 -84.28577746 151.63558625 -84.29516602 146.71875 C-84.30619466 141.66985612 -84.3405603 136.62140729 -84.38033772 131.57266998 C-84.40663883 127.6655604 -84.41487 123.75855443 -84.41844749 119.85136414 C-84.42328267 117.99205029 -84.43480769 116.13274011 -84.45348549 114.27351379 C-84.55539303 103.45246765 -84.08912964 94.28883525 -80 84.125 C-79.64243118 83.22414673 -79.28486237 82.32329346 -78.91645813 81.3951416 C-72.99127298 67.27673045 -59.58715279 57.1662676 -46 51.125 C-42.19937282 49.64697832 -40.11342824 49.125 -36 49.125 C-36.00523682 48.40320557 -36.01047363 47.68141113 -36.01586914 46.93774414 C-36.03657358 43.68767151 -36.04963918 40.43761272 -36.0625 37.1875 C-36.07087891 36.05119141 -36.07925781 34.91488281 -36.08789062 33.74414062 C-36.09111328 32.66455078 -36.09433594 31.58496094 -36.09765625 30.47265625 C-36.10289307 29.47242432 -36.10812988 28.47219238 -36.11352539 27.44165039 C-36 25.125 -36 25.125 -35 24.125 C-32.70848583 24.03709025 -30.41427476 24.01805962 -28.12109375 24.02734375 C-27.09110008 24.02946617 -27.09110008 24.02946617 -26.04029846 24.03163147 C-23.83932199 24.03724521 -21.63844591 24.04979993 -19.4375 24.0625 C-17.94856917 24.06751324 -16.45963676 24.07207645 -14.97070312 24.07617188 C-11.31376925 24.08721907 -7.65689442 24.10449287 -4 24.125 C-4.00523682 23.43349854 -4.01047363 22.74199707 -4.01586914 22.02954102 C-4.036575 18.91553648 -4.04963963 15.80154639 -4.0625 12.6875 C-4.07087891 11.59888672 -4.07925781 10.51027344 -4.08789062 9.38867188 C-4.09111328 8.35419922 -4.09433594 7.31972656 -4.09765625 6.25390625 C-4.10289307 5.29556885 -4.10812988 4.33723145 -4.11352539 3.34985352 C-3.93761142 -0.09768194 -3.51702641 0.14654277 0 0 Z " fill="#1E0202" transform="translate(128,-0.125)"/>
<path d="M0 0 C1.06098372 0.00092179 2.12196745 0.00184359 3.2151022 0.00279331 C4.42811504 0.00141865 5.64112789 0.00004398 6.8908987 -0.00137234 C8.24737478 0.00216727 9.60385061 0.00580208 10.96032619 0.00952244 C12.37917485 0.00980431 13.79802365 0.00964658 15.21687222 0.00907993 C19.08033881 0.00879194 22.94377463 0.01468892 26.80723405 0.02165389 C30.84047653 0.02788716 34.87371965 0.02849121 38.90696621 0.0296793 C46.54970549 0.03279269 54.19243053 0.04100619 61.83516353 0.05102879 C70.53393099 0.06218967 79.23269911 0.06770031 87.93147194 0.07272422 C105.83033965 0.0831888 123.72919408 0.1007884 141.6280508 0.12304783 C144.8123676 7.47861157 145.74481906 12.18280654 145.6280508 20.12304783 C142.3280508 20.45304783 139.0280508 20.78304783 135.6280508 21.12304783 C135.24586313 22.7791944 134.91409979 24.44761807 134.6280508 26.12304783 C136.29147917 27.7864762 138.4106217 27.48352879 140.6905508 27.68554783 C142.3199258 27.82992283 143.9493008 27.97429783 145.6280508 28.12304783 C145.6280508 34.72304783 145.6280508 41.32304783 145.6280508 48.12304783 C95.4680508 48.12304783 45.3080508 48.12304783 -6.3719492 48.12304783 C-6.3719492 41.52304783 -6.3719492 34.92304783 -6.3719492 28.12304783 C28.6080508 27.79304783 63.5880508 27.46304783 99.6280508 27.12304783 C99.9580508 25.47304783 100.2880508 23.82304783 100.6280508 22.12304783 C99.08319872 20.57819574 97.63590103 20.98261684 95.48362637 20.96482944 C94.59035137 20.95504063 93.69707638 20.94525181 92.77673244 20.93516636 C91.78914944 20.9294109 90.80156643 20.92365543 89.78405666 20.91772556 C88.23301991 20.90287617 88.23301991 20.90287617 86.65064907 20.88772678 C83.21475461 20.8560057 79.77884629 20.83131259 76.34289455 20.80664158 C73.9677738 20.7860812 71.59265679 20.76508499 69.2175436 20.74366856 C62.95233075 20.68835321 56.68708437 20.63898581 50.42181301 20.59082127 C44.03414821 20.54067515 37.64653238 20.48495321 31.25891018 20.42968845 C18.71533246 20.32199122 6.17171299 20.22038293 -6.3719492 20.12304783 C-6.38879673 18.68623938 -6.40080072 17.24937361 -6.41076756 15.81250095 C-6.41797321 15.01235569 -6.42517887 14.21221043 -6.43260288 13.38781834 C-6.35837165 10.61607069 -5.80347463 8.25091421 -4.9344492 5.62304783 C-4.66761326 4.78773533 -4.40077732 3.95242283 -4.12585545 3.09179783 C-3.00151929 0.15570756 -3.00151929 0.15570756 0 0 Z " fill="#E80D39" transform="translate(58.371949195861816,87.87695217132568)"/>
<path d="M0 0 C50.16 0 100.32 0 152 0 C152 6.6 152 13.2 152 20 C113.06 20.33 74.12 20.66 34 21 C33.505 23.475 33.505 23.475 33 26 C34.61364043 27.61364043 36.36720761 27.14164417 38.59999084 27.15821838 C40.09135811 27.17290161 40.09135811 27.17290161 41.612854 27.18788147 C42.71264587 27.19363693 43.81243774 27.1993924 44.94555664 27.20532227 C46.67215767 27.22017166 46.67215767 27.22017166 48.43363953 27.23532104 C52.25912379 27.26704662 56.0846205 27.29173703 59.91015625 27.31640625 C62.55431959 27.33696624 65.19847957 27.35796244 67.84263611 27.37937927 C74.10412039 27.42935606 80.36563045 27.47427631 86.62716526 27.51740164 C93.75404844 27.5667315 100.88088492 27.62166534 108.00772297 27.67708123 C122.67177112 27.79097777 137.33586573 27.89780003 152 28 C151.91184022 30.02159489 151.80365464 32.04232027 151.6875 34.0625 C151.62949219 35.18785156 151.57148438 36.31320313 151.51171875 37.47265625 C151 41 151 41 148 48 C100.48 48 52.96 48 4 48 C0 37 0 37 0 0 Z " fill="#E90D39" transform="translate(52,144)"/>
<path d="M0 0 C1.42711671 -0.0096726 2.85423062 -0.01976725 4.28134155 -0.03025818 C7.26168695 -0.04812075 10.24177291 -0.05378984 13.22216797 -0.05200195 C16.24615484 -0.05175861 19.26877405 -0.07252071 22.29248047 -0.11352539 C61.13071743 -0.63272925 61.13071743 -0.63272925 77.1484375 13.50390625 C80.00909182 16.35518137 82.76618997 19.23663379 85.1484375 22.50390625 C85.1484375 23.16390625 85.1484375 23.82390625 85.1484375 24.50390625 C40.9284375 24.50390625 -3.2915625 24.50390625 -48.8515625 24.50390625 C-44.63329228 13.95823071 -34.97161696 7.99124156 -24.8515625 3.50390625 C-16.66998707 0.24078497 -8.71436297 0.01406102 0 0 Z " fill="#E80D39" transform="translate(109.8515625,55.49609375)"/>
<path d="M0 0 C44.22 0 88.44 0 134 0 C127.79088213 12.41823574 116.59960217 18.54336982 103.86065674 22.96115112 C97.46709437 24.68156957 91.19455316 24.6996316 84.6171875 24.62890625 C83.18620626 24.62973835 81.75522515 24.63221053 80.32424927 24.63621521 C77.35079578 24.63904633 74.37810676 24.62463688 71.40478516 24.59692383 C67.6281595 24.56278173 63.85289201 24.56890526 60.07620049 24.5875864 C57.12982204 24.59824288 54.18375012 24.58914218 51.23740005 24.57420158 C49.84620199 24.5690866 48.454971 24.56941846 47.06377792 24.57574654 C31.66654548 24.61953613 17.19288006 20.3314225 5.9375 9.3125 C0 2.85365854 0 2.85365854 0 0 Z " fill="#E80D39" transform="translate(61,200)"/>
<path d="M0 0 C38.28 0 76.56 0 116 0 C115 13 115 13 112 20 C75.37 20 38.74 20 1 20 C-1.98514842 14.02970315 0 6.6749948 0 0 Z " fill="#E80D39" transform="translate(88,172)"/>
<path d="M0 0 C11.88 0 23.76 0 36 0 C36.061875 3.25875 36.12375 6.5175 36.1875 9.875 C36.22846802 11.41389893 36.22846802 11.41389893 36.27026367 12.98388672 C36.27775635 13.79100098 36.28524902 14.59811523 36.29296875 15.4296875 C36.3086792 16.25710449 36.32438965 17.08452148 36.34057617 17.93701172 C36.17199097 18.95819092 36.17199097 18.95819092 36 20 C35.01 20.66 34.02 21.32 33 22 C33.34444881 24.47266765 33.34444881 24.47266765 34 27 C34.66 27.33 35.32 27.66 36 28 C36.33 34.6 36.66 41.2 37 48 C26.11 48 15.22 48 4 48 C-0.59794776 35.35564366 -0.59794776 35.35564366 -0.390625 27.83203125 C-0.38659668 27.11575562 -0.38256836 26.39947998 -0.37841797 25.66149902 C-0.35785528 23.04489666 -0.3020172 20.42866608 -0.25 17.8125 C-0.1675 11.934375 -0.085 6.05625 0 0 Z " fill="#E74D6C" transform="translate(52,144)"/>
<path d="M0 0 C11.88 0 23.76 0 36 0 C39.35114735 7.81934381 40.12117827 11.75987765 40 20 C36.7 20.33 33.4 20.66 30 21 C29.61781233 22.65614657 29.28604898 24.32457024 29 26 C30.66342837 27.66342837 32.7825709 27.36048097 35.0625 27.5625 C36.691875 27.706875 38.32125 27.85125 40 28 C40 34.6 40 41.2 40 48 C28.12 48 16.24 48 4 48 C3.6875 30.75 3.6875 30.75 3.61206055 25.38574219 C3.57969338 23.93942855 3.54630911 22.49313718 3.51171875 21.046875 C3.50547485 20.33096191 3.49923096 19.61504883 3.49279785 18.87744141 C3.30482183 12.00093664 1.77319897 7.09279589 0 0 Z " fill="#B80A2E" transform="translate(164,88)"/>
<path d="M0 0 C19.8 0 39.6 0 60 0 C60 5.28 60 10.56 60 16 C40.2 16 20.4 16 0 16 C0 10.72 0 5.44 0 0 Z " fill="#470718" transform="translate(100,32)"/>
<path d="M0 0 C18.48 0 36.96 0 56 0 C56 5.28 56 10.56 56 16 C37.52 16 19.04 16 0 16 C0 10.72 0 5.44 0 0 Z " fill="#470718" transform="translate(100,232)"/>
<path d="M0 0 C0.95648438 0.01353516 1.91296875 0.02707031 2.8984375 0.04101562 C5.2245811 0.07590778 7.5494653 0.12491661 9.875 0.1875 C9.48900635 0.66638672 9.1030127 1.14527344 8.70532227 1.63867188 C5.97879284 5.12822417 3.6767215 8.3715616 1.96484375 12.46875 C-0.48772601 17.61652978 -2.91895629 21.5391731 -8.125 24.1875 C-19.96597817 26.7963105 -33.14796256 25.13603175 -45.125 24.1875 C-41.29000257 14.15821966 -32.41245548 8.70378467 -23.09033203 4.05541992 C-15.38256241 0.65155396 -8.36852265 -0.22919409 0 0 Z " fill="#E54C6B" transform="translate(106.125,55.8125)"/>
<path d="M0 0 C17.82499428 -1.01396554 33.05674409 0.6942083 47 13 C49.86065432 15.85127512 52.61775247 18.73272754 55 22 C55 22.66 55 23.32 55 24 C50.01982752 24.22383228 45.04262653 24.38639099 40.05859375 24.49438477 C38.3666684 24.53942743 36.67508917 24.60068735 34.984375 24.67895508 C21.00873556 25.30934212 21.00873556 25.30934212 16.26953125 22.22021484 C14.21203252 19.92610376 12.61148536 17.62231197 11 15 C9.95423585 13.68443753 8.89265454 12.38122561 7.8125 11.09375 C6.87201543 9.89817509 5.93444504 8.70030124 5 7.5 C4.51144531 6.88125 4.02289063 6.2625 3.51953125 5.625 C0 1.12946429 0 1.12946429 0 0 Z " fill="#B70A2E" transform="translate(140,56)"/>
<path d="M0 0 C1.51815699 0.00015911 3.0363194 0.00585313 4.55444336 0.01586914 C5.35208603 0.01728409 6.1497287 0.01869904 6.97154236 0.02015686 C9.52916146 0.02577223 12.08669429 0.03832727 14.64428711 0.05102539 C16.37410356 0.05603841 18.10392137 0.06060166 19.83374023 0.06469727 C24.0831495 0.07489748 28.33237127 0.09446971 32.58178711 0.11352539 C31.26178711 6.71352539 29.94178711 13.31352539 28.58178711 20.11352539 C16.70178711 20.11352539 4.82178711 20.11352539 -7.41821289 20.11352539 C-7.41821289 9.96041534 -7.41821289 9.96041534 -5.98071289 5.61352539 C-5.71387695 4.77821289 -5.44704102 3.94290039 -5.17211914 3.08227539 C-3.91127568 -0.21028991 -3.82443188 0.1270167 0 0 Z " fill="#E64D6C" transform="translate(59.418212890625,87.886474609375)"/>
<path d="M0 0 C11.88 0 23.76 0 36 0 C36 6.6 36 13.2 36 20 C24.12 20 12.24 20 0 20 C0 13.4 0 6.8 0 0 Z " fill="#B90B2F" transform="translate(168,144)"/>
<path d="M0 0 C11.88 0 23.76 0 36 0 C36 6.6 36 13.2 36 20 C24.12 20 12.24 20 0 20 C0 13.4 0 6.8 0 0 Z " fill="#E84E6D" transform="translate(52,116)"/>
<path d="M0 0 C11.88 0 23.76 0 36 0 C35 13 35 13 32 20 C21.11 20 10.22 20 -1 20 C-0.67 13.4 -0.34 6.8 0 0 Z " fill="#B80A2E" transform="translate(168,172)"/>
<path d="M0 0 C10.23 0 20.46 0 31 0 C33.475 4.95 33.475 4.95 36 10 C37.94674972 12.72830508 37.94674972 12.72830508 40 14.8125 C40.639375 15.49957031 41.27875 16.18664062 41.9375 16.89453125 C44.27463561 19.28035719 46.63224486 21.64457692 49 24 C33.363123 24.76902674 20.0959222 21.55647307 7.796875 11.1328125 C4.93936814 8.3353373 2.13643876 5.39316745 0 2 C0 1.34 0 0.68 0 0 Z " fill="#E54C6B" transform="translate(61,200)"/>
<path d="M0 0 C10.23 0 20.46 0 31 0 C24.8262544 12.3474912 13.46890729 18.81002147 0.7265625 23.1328125 C-5.54442848 24.59209971 -11.59196153 24.40386797 -18 24 C-17.2575 23.26136719 -16.515 22.52273437 -15.75 21.76171875 C-13.46818387 19.47017897 -11.20284793 17.17967328 -9 14.8125 C-8.360625 14.13832031 -7.72125 13.46414062 -7.0625 12.76953125 C-4.15723095 8.86832716 -2.17531522 4.35063045 0 0 Z " fill="#B70A2E" transform="translate(164,200)"/>
<path d="M0 0 C1.08152344 -0.01417969 2.16304687 -0.02835938 3.27734375 -0.04296875 C6.0625 0.1875 6.0625 0.1875 8.0625 2.1875 C7.50694444 6.74305556 7.50694444 6.74305556 6.0625 8.1875 C4.08630553 8.31264928 2.10511827 8.3632276 0.125 8.375 C-0.95652344 8.38917969 -2.03804688 8.40335938 -3.15234375 8.41796875 C-5.9375 8.1875 -5.9375 8.1875 -7.9375 6.1875 C-7.18513529 0.01810941 -5.98340298 0.03557314 0 0 Z " fill="#230405" transform="translate(67.9375,163.8125)"/>
<path d="M0 0 C1.08152344 -0.01417969 2.16304687 -0.02835937 3.27734375 -0.04296875 C6.0625 0.1875 6.0625 0.1875 8.0625 2.1875 C7.50694444 6.74305556 7.50694444 6.74305556 6.0625 8.1875 C4.08630553 8.31264928 2.10511827 8.3632276 0.125 8.375 C-0.95652344 8.38917969 -2.03804687 8.40335938 -3.15234375 8.41796875 C-5.9375 8.1875 -5.9375 8.1875 -7.9375 6.1875 C-7.18513529 0.01810941 -5.98340298 0.03557314 0 0 Z " fill="#220203" transform="translate(175.9375,107.8125)"/>
</svg>
